<?xml version="1.0" encoding="UTF-8"?><svg id="b" xmlns="http://www.w3.org/2000/svg" xmlns:xlink="http://www.w3.org/1999/xlink" viewBox="0 0 218.50906 218.50937"><defs><linearGradient id="d" x1="23.44364" y1="231.80533" x2="146.11486" y2="56.61267" gradientUnits="userSpaceOnUse"><stop offset="0" stop-color="#eb4971"/><stop offset=".16576" stop-color="#ec4e6a"/><stop offset=".39615" stop-color="#ef5d58"/><stop offset=".66437" stop-color="#f4753b"/><stop offset=".95907" stop-color="#fa9612"/><stop offset="1" stop-color="#fc9c0c"/></linearGradient></defs><g id="c"><path d="M109.25437,0C48.9149,0,0,48.91522,0,109.25469s48.9149,109.25469,109.25437,109.25469,109.25469-48.91522,109.25469-109.25469S169.59416,0,109.25437,0ZM46.9168,75.10915v-.76474c15.26994-1.89268,24.29161-10.91436,26.1846-26.1846h.76444c1.89329,15.27024,10.91497,24.29192,26.18491,26.1846v.76474c-15.27024,1.89268-24.29192,10.91436-26.18491,26.1846h-.76444c-1.89299-15.27024-10.91466-24.29192-26.1846-26.1846Zm128.09085,48.10994c-30.20174,3.74372-48.04514,21.58712-51.78916,51.78856h-1.51194c-3.74402-30.20144-21.58712-48.04484-51.78886-51.78856v-1.51254c30.20144-3.74372,48.04484-21.58712,51.78886-51.78886h1.51194c3.74432,30.20174,21.58802,48.04514,51.78916,51.78886v1.51254Z" style="fill:url(#d);"/></g></svg>